<svg xmlns="http://www.w3.org/2000/svg" xmlns:xlink="http://www.w3.org/1999/xlink" width="20" height="20" viewBox="0 0 20 20">
  <defs>
    <rect id="rect-1" width="20" height="20" x="0" y="0"/>
    <mask id="mask-2" maskContentUnits="userSpaceOnUse" maskUnits="userSpaceOnUse">
      <rect width="20" height="20" x="0" y="0" fill="black"/>
      <use fill="white" xlink:href="#rect-1"/>
    </mask>
  </defs>
  <g>
    <use fill="none" xlink:href="#rect-1"/>
    <g mask="url(#mask-2)">
      <path fill="rgb(250,153,23)" fill-rule="evenodd" d="M17.3039856 20H2.69598389c-.57983399.00524902-1.06188965-.44515991-1.09597779-1.02401733v-10.29599C.6350708 8.3388672-.00735474 7.42340088 0 6.3999939v-.55999756c.03155518-.4772644.16815186-.9416504.3999939-1.36001587L3.0079956.19198608C3.08102418.072052 3.21157838-.00082397 3.35198976 0h13.32000732c.14041138-.00082397.2709961.072052.34399414.19198608l2.57601929 4.24002076c.23675537.43405151.37597656.9145813.4079895 1.4079895v.55999756c.0211792 1.03509521-.62380981 1.96710205-1.6000061 2.31201172v10.26397705c-.03408814.57885742-.5161438 1.02926635-1.0960083 1.02401733zM2.3999939 8h-.10400391c-.1090393.01123047-.2189331.01123047-.32797241 0C1.25561523 7.80078125.77267456 7.13919067.79998779 6.3999939v-.55999756c.03305054-.33666992.13372803-.66320801.29602051-.96002197L3.57598877.79998779h12.87200928l2.44799804 4c.17214966.32192993.27566529.6760254.30401612 1.04000855v.55999756c.0081787.71481323-.45880127 1.34829712-1.14401245 1.55200195-.80310059.18734741-1.61706543-.26638794-1.88000489-1.04800415-.06063842-.20532227-.24990844-.3456421-.46398925-.34399414-.2133484.00292969-.3991394.1463623-.45599366.35198974-.17660522.65213013-.76837158 1.105011-1.44400024 1.105011s-1.26742554-.45285035-1.44400025-1.105011c-.05767822-.20846557-.24771118-.35263061-.46401977-.35198974-.2140503-.00164795-.40335083.13867187-.46398926.34399414-.1869812.64196777-.77532959 1.08343506-1.44400024 1.08343506-.66867066 0-1.25701905-.44146729-1.44400025-1.08343506-.07565307-.18762207-.25769043-.31048584-.45999145-.31048584-.20230103 0-.38433838.12286377-.46002197.31048584-.19210816.63916016-.78057862 1.0767517-1.44799805 1.0767517-.66738892 0-1.25585938-.43759154-1.44799805-1.0767517-.06063843-.20532227-.24990845-.3456421-.46398926-.34399414-.2140808-.00164795-.40335083.13867187-.46398925.34399414C3.61862182 7.53097534 3.05429077 7.97027588 2.3999939 8zm15.2000122 7.2000122V8.7999878c-.75549316-.02496339-1.4550476-.40438843-1.88800048-1.02398682-.42617798.63668823-1.1418457 1.01882934-1.90802002 1.01882934-.7661438 0-1.48181153-.38214111-1.9079895-1.01882934-.42675782.63323974-1.14038087 1.01287841-1.9039917 1.01287841-.76361085 0-1.47726441-.37963867-1.90402222-1.01287841-.42803955.6366272-1.14486695 1.01843261-1.9119873 1.01843261-.76715089 0-1.48394776-.38180542-1.91198731-1.01843261-.42092896.62078857-1.11431885 1.00170898-1.86401367 1.02398681v6.40002442h15.2000122zM2.3999939 16v2.97601318c0 .1039734.16000366.22399903.29598999.22399903h14.6080017c.13601685 0 .29602051-.12002564.29602051-.22399903V16H2.3999939z"/>
    </g>
  </g>
</svg>
