<svg xmlns="http://www.w3.org/2000/svg" width="20" height="20" viewBox="0 0 20 20">
  <path fill="rgb(250,153,23)" fill-rule="evenodd" d="M17.01634216.19198608l2.57600403 4.24002076c.23675537.43408203.37599182.9145813.40800476 1.4079895v.55999756c.00733948 1.02340698-.63510132 1.93887329-1.6000061 2.27999878v10.29598999c-.03408814.57885742-.51615906 1.02926635-1.0960083 1.02401733H2.6963501c-.57984925.00524902-1.06192017-.44515991-1.0960083-1.02401733V8.70397949C.6269989 8.3600464-.01734924 7.43218994.00035095 6.3999939v-.55999755c.03157044-.4772644.16815186-.9416504.3999939-1.36001587L3.00834655.19198608C3.08135987.072052 3.21192933-.00082397 3.3523407 0h13.32000732c.14041138-.00082397.27098084.072052.34399414.19198608zM2.40034485 8.7999878v6.3999939H17.6003418v-6.3999939c-.75119019-.02557373-1.44699097-.40161133-1.87998963-1.0159912-.42617798.63668822-1.14186096 1.01882934-1.90800476 1.01882934-.76615906 0-1.48182678-.38214112-1.90800476-1.01882935-.42674255.63323975-1.14038086 1.01287842-1.9039917 1.01287842-.76361084 0-1.4772644-.37963867-1.90400696-1.01287842-.42803955.6366272-1.14486694 1.01843262-1.91200256 1.01843262-.76713562 0-1.48396301-.38180542-1.91200256-1.01843262-.4243164.61999512-1.1209259.9980774-1.87199402 1.01599121z"/>
</svg>
