<svg xmlns="http://www.w3.org/2000/svg" width="21" height="25" viewBox="0 0 21 25">
  <path fill="rgb(250,153,23)" fill-rule="evenodd" d="M1.25 25h18.5c.6903534 0 1.25-.5596466 1.25-1.25V4.25C21 3.5596447 20.4403534 3 19.75 3h-2.83999634c-.21138-.59786415-.7758789-.99821854-1.41000366-1H13v-.5c0-.82842636-.67156982-1.5-1.5-1.5h-2C8.67156982 0 8 .67157364 8 1.5V2H5.5c-.63412476.00178146-1.19862366.40213585-1.41000366 1H1.25C.5596466 3 0 3.5596447 0 4.25v19.5C0 24.4403534.5596466 25 1.25 25zM5 5h11V3.5c0-.27614212-.2238617-.5-.5-.5h-3c-.2761383 0-.5-.22385788-.5-.5v-1c0-.27614212-.2238617-.5-.5-.5h-2c-.2761383 0-.5.22385788-.5.5v1c0 .27614212-.2238617.5-.5.5h-3c-.2761383 0-.5.22385788-.5.5V5zm-4-.75c.00512695-.13588715.11410522-.24486542.25-.25H4v1.5c0 .27614212.2238617.5.5.5h12c.2761383 0 .5-.22385788.5-.5V4h2.75c.13589478.00513458.24487305.11411285.25.25v19.5c-.00512695.13588715-.11410522.24486542-.25.25H1.25c-.13589478-.00513458-.24487305-.11411285-.25-.25V4.25zm3 7.25c0 .27614212.2238617.5.5.5h2c.2761383 0 .5-.22385788.5-.5v-2c0-.27614212-.2238617-.5-.5-.5h-2c-.2761383 0-.5.22385788-.5.5v2zm2-.5v-1H5v1h1zm3 0h8v-1H9v1zm-4.5 5c-.2761383 0-.5-.22385788-.5-.5v-2c0-.27614212.2238617-.5.5-.5h2c.2761383 0 .5.22385788.5.5v2c0 .27614212-.2238617.5-.5.5h-2zM6 14v1H5v-1h1zm11 1H9v-1h8v1zM4 19.5c0 .27614212.2238617.5.5.5h2c.2761383 0 .5-.22385788.5-.5v-2c0-.27614212-.2238617-.5-.5-.5h-2c-.2761383 0-.5.22385788-.5.5v2zm2-.5v-1H5v1h1zm3 0h8v-1H9v1z"/>
</svg>
