<svg xmlns="http://www.w3.org/2000/svg" width="19.934" height="20" viewBox="0 0 19.934 20">
  <g>
    <path fill="rgb(66,133,244)" fill-rule="evenodd" d="M19.93355482 10.22221371c0-.82221371-.06785314-1.42221371-.2146995-2.04442742h-9.5486743v3.71106855h5.6048565c-.11295873.92225202-.7231696 2.31114516-2.0792197 3.24442743l-.01900823.12424358 3.01911425 2.2997319.20916841.02052854c1.92099958-1.74446572 3.02846257-4.31114516 3.02846257-7.35557258"/>
    <path fill="rgb(52,168,83)" fill-rule="evenodd" d="M10.17018103 20c2.74590993 0 5.051125-.88893144 6.73491122-2.42221371l-3.20927443-2.44450402c-.85879798.58889314-2.01144446 1-3.5256368 1-2.68943055 0-4.97205387-1.74438913-5.78574626-4.15549598l-.11926884.00995787L1.125848 14.3766373l-.04105466.11221754C2.7572058 17.75549598 6.1924756 20 10.17018103 20"/>
    <path fill="rgb(251,188,5)" fill-rule="evenodd" d="M4.38443476 11.97778629C4.16973527 11.35557258 4.04548066 10.68885484 4.04548066 10c0-.68893144.12425461-1.35557258.32765823-1.97778629L4.367452 7.88969743 1.18879328 5.4624282l-.10399994.04864037C.39551137 6.86664113 0 8.38889314 0 10s.39551137 3.13328227 1.08479334 4.48885484l3.29964142-2.51106855"/>
    <path fill="rgb(235,67,53)" fill-rule="evenodd" d="M10.17018103 3.86664113c1.9097037 0 3.19790066.81110686 3.93244403 1.48893145L16.97286749 2.6C15.21008805.98889314 12.91609096 0 10.17018103 0 6.1924756 0 2.7572058 2.24442742 1.08479334 5.51106856L4.3731389 8.0222137c.82498826-2.41110685 3.10761158-4.15557258 5.79704214-4.15557258"/>
  </g>
</svg>
