<svg xmlns="http://www.w3.org/2000/svg" xmlns:xlink="http://www.w3.org/1999/xlink" width="20" height="20" viewBox="0 0 20 20">
  <defs>
    <rect id="rect-1" width="20" height="20" x="0" y="0"/>
    <mask id="mask-2" maskContentUnits="userSpaceOnUse" maskUnits="userSpaceOnUse">
      <rect width="20" height="20" x="0" y="0" fill="black"/>
      <use fill="white" xlink:href="#rect-1"/>
    </mask>
  </defs>
  <g>
    <use fill="none" xlink:href="#rect-1"/>
    <g mask="url(#mask-2)">
      <path fill="rgb(255,85,85)" fill-rule="evenodd" d="M9.71200562 19.07202148c.07443237.08026123.17852783.12652588.28799438.12799073.10827637.00064087.21218872-.04266358.28799438-.11999512.32000733-.32800293 7.66400147-8.05599976 8.80001832-9.88800049.58062744-.89407348.89678955-1.93405151.9119873-3-.01260376-2.40783691-1.61331177-4.518219-3.92858887-5.17944336C13.75613403.35131836 11.28231812 1.29800415 10 3.33599854 8.71768188 1.29800415 6.24386597.35131836 3.92858887 1.01257324 1.61331177 1.67379761.01260376 3.7841797 0 6.1920166.01669312 7.25524902.33279419 8.29223633.9119873 9.184021c1.14401246 1.83200073 8.4880066 9.55999755 8.80001832 9.88800048zM.79998779 6.19198608C.80880737 3.65332031 2.86929321 1.59997558 5.4079895 1.6000061c1.84869385-.00976562 3.52423096 1.0862732 4.25601196 2.78399659.07196045.13653564.21362305.22201538.36798096.22201538.15435791 0 .29602051-.08547974.36801148-.22201538.90484619-1.9449463 3.03027343-3.0102234 5.12997436-2.57119751 2.09970093.43902587 3.62023926 2.2666626 3.67001343 4.41119384-.01934815.91677857-.29660034 1.8095398-.7999878 2.57598877-.96801757 1.53601075-7 7.93600464-8.39199828 9.44799805-1.40802002-1.44799805-7.44000245-7.84799194-8.40802002-9.44799805-.509552-.77542114-.78710938-1.6802063-.7999878-2.6080017z"/>
    </g>
  </g>
</svg>
