<svg xmlns="http://www.w3.org/2000/svg" width="20" height="18.512" viewBox="0 0 20 18.512">
  <path fill="rgb(255,85,85)" fill-rule="evenodd" d="M14.592.10935733c-.9176-.00088133-1.82030667.231368-2.62352.67496-.80321333.44358667-1.48056 1.08396-1.96848 1.86104C9.37573333 1.65321067 8.44642667.89037067 7.35165333.47141867 6.25688.05246267 5.05572 0 3.92858667.32191067 2.80145333.643824 1.80917333 1.32273067 1.10078533 2.256664.392396 3.19061067.00613012 4.32917067 0 5.50135733c.01519667 1.06596.33134667 2.10593334.912 3 1.136 1.832 8.48 9.56 8.8 9.888.03732.03866667.08205333.06946667.13153333.09053334.04948.02106666.10269334.03186666.15646667.03186666.05377333 0 .10698667-.0108.15646667-.03186666.04948-.02106667.09421333-.05186667.13153333-.09053334.312-.328 7.656-8.056 8.8-9.888.58066667-.89406666.8968-1.93404.912-3-.00426667-1.43152-.57586667-2.80296-1.5896-3.81369333C17.39666667.67693067 16.02346667.109352 14.592.10935733z"/>
</svg>
