<svg xmlns="http://www.w3.org/2000/svg" width="24.71" height="25.038" viewBox="0 0 24.71 25.038">
  <path fill="#333" fill-rule="evenodd" d="M20.61000061 25.03789902h-16.5c-.6903572 0-1.25-.5596466-1.25-1.25v-13.0699997l-2.15000153 2.1399994L0 12.14789961l12-12C12.09388351.05324365 12.22167969 0 12.35499954 0c.13331986 0 .26111603.05324364.35499954.14789963l12 12L24 12.8578987l-2.13999939-2.1100006v13c.01083374.33839416-.11606598.6667137-.35166931.9098587-.23560333.24314117-.55976105.38031768-.89833069.3801422zm-4.75-1h4.75c.13806915 0 .25-.11193085.25-.25V9.73789978l-8.48999786-8.5L3.8600006 9.72790146v14.05999756c0 .13806915.11192703.25.25.25h4.75v-5.75c0-.6903534.5596428-1.25 1.25-1.25h4.5c.6903572 0 1.25.5596466 1.25 1.25v5.75zm-1 0h-5v-5.75c0-.13807297.11192703-.25.25-.25h4.5c.13806915 0 .25.11192703.25.25v5.75z"/>
</svg>
