<svg xmlns="http://www.w3.org/2000/svg" xmlns:xlink="http://www.w3.org/1999/xlink" width="249" height="182" viewBox="0 0 249 182">
  <defs>
    <rect id="rect-1" width="249" height="182" x="0" y="0"/>
    <mask id="mask-2" maskContentUnits="userSpaceOnUse" maskUnits="userSpaceOnUse">
      <rect width="249" height="182" x="0" y="0" fill="black"/>
      <use fill="white" xlink:href="#rect-1"/>
    </mask>
  </defs>
  <g>
    <use fill="none" xlink:href="#rect-1"/>
    <g mask="url(#mask-2)">
      <rect width="183.052" height="117.518" x=".078" y=".104" fill="rgb(230,230,230)" rx="0" ry="0"/>
      <rect width="172.583" height="95.826" x="5.312" y="14.844" fill="rgb(255,255,255)" rx="0" ry="0"/>
      <rect width="183.052" height="7.795" x="0" y="0" fill="rgb(250,153,23)" rx="0" ry="0"/>
      <ellipse cx="5.779" cy="3.985" fill="rgb(255,255,255)" rx="1.441" ry="1.445"/>
      <ellipse cx="11.25" cy="3.985" fill="rgb(255,255,255)" rx="1.441" ry="1.445"/>
      <ellipse cx="16.721" cy="3.985" fill="rgb(255,255,255)" rx="1.441" ry="1.445"/>
      <rect width="33.755" height="36.709" x="26.547" y="22.725" fill="rgb(230,230,230)" rx="0" ry="0"/>
      <rect width="33.755" height="36.709" x="74.726" y="22.725" fill="rgb(230,230,230)" rx="0" ry="0"/>
      <rect width="33.755" height="36.709" x="122.906" y="22.725" fill="rgb(230,230,230)" rx="0" ry="0"/>
      <rect width="33.755" height="36.709" x="26.547" y="66.079" fill="rgb(230,230,230)" rx="0" ry="0"/>
      <rect width="33.755" height="36.709" x="74.726" y="66.079" fill="rgb(230,230,230)" rx="0" ry="0"/>
      <rect width="33.755" height="36.709" x="122.906" y="66.079" fill="rgb(230,230,230)" rx="0" ry="0"/>
      <path fill="rgb(255,255,255)" fill-rule="evenodd" d="M82.88482023 75.51388544l6.16736374-2.44415303.7171342 12.22076234s1.29084212 3.73811608.86056898 5.17585215c0 0 .28685254 2.44415304-.43028165 2.58792608-.7171342.14377304-2.72511052.43132196-2.86853679.28754892-.14342627-.14377303-.14342627-.575095-.14342627-.575095s-1.43427123 1.00641412-1.5776975 2.15660412c0 0-6.02392895 1.86905804-6.16736374.14377304-.1434348-1.725285 3.0119659-3.16302108 3.0119659-3.16302108l2.43825796-3.73811323-2.00798483-12.6520843z"/>
      <path fill="rgb(255,255,255)" fill-rule="evenodd" d="M95.9366677 75.51388544l6.16736375-2.44415303.7171342 12.22076234s1.29084212 3.73811608.86056898 5.17585215c0 0 .28685538 2.44415304-.43027881 2.58792608-.7171342.14377304-2.72511336.43132196-2.86853963.28754892-.14342627-.14377303-.14342627-.575095-.14342627-.575095s-1.4342684 1.00641412-1.57769466 2.15660412c0 0-6.0239318 1.86905804-6.16736374.14377304-.14343195-1.725285 3.0119659-3.16302108 3.0119659-3.16302108l2.43825512-3.73811323-2.00798483-12.6520843z"/>
      <path fill="rgb(63,61,86)" fill-rule="evenodd" d="M96.53999726 28.32138454s-1.31327767 3.67820021.2083054 5.33694934l-1.2684378 4.36946118s4.50695962 13.55356312 3.21925768 15.44675884c0 0-4.8074234 2.40952182-14.42226455-.86054351l3.90602922-15.18859578-.55800418-6.411052.77262117-3.01190228 1.71693591-.1721087s-1.03016155 3.8724458.85846796 4.47482625c1.88862951.60238046 3.73113298-4.37816452 3.73113298-4.37816452l1.83595621.39437118z"/>
      <path fill="rgb(255,255,255)" fill-rule="evenodd" d="M35.89389513 52.06666476l1.65720431.67958632 7.9093757-10.42031498 2.48580362 12.2325423 1.65720147-.30203836c1.063071-10.54607227 1.9299232-21.30297713.86626447-26.3905749l-6.1391816-.26428215-2.7871135 8.91012316-1.3558916 6.04076726-4.29366287 9.51419135z"/>
      <path fill="rgb(255,255,255)" fill-rule="evenodd" d="M136.47528164 27.78134198s-2.26166955 3.15187294-2.15134296 4.42367633c.11032659 1.27180339 1.5445524 22.0078168 1.5445524 22.0078168l3.36492126.16589-.99292228-14.9299119.82743807-4.03660821 2.04101921 18.80064434 4.13719889.11059333-3.6958982-24.38554496-.71711432-2.15654435-4.35785207-.00001138z"/>
      <path fill="rgb(63,61,86)" fill-rule="evenodd" d="M149.25806148 78.55710894c-.60051588-.72235735-1.63275007-1.11290908-2.62413065-1.3239779.0297636-.09033202-3.01477389-.72067815-3.06568686-.5907741l-1.14743005-.9161931-3.52489737 1.8349192-1.98098665-1.35176141-.9201927.32735717c.03747776-.162654-2.85657798.33968928-2.85657798.33968928-.55281974.01992262-1.25895478.05460506-2.04933814.11555122-2.76797996.21343107-2.98090194 7.39910313-2.98090194 7.39910313 1.27356533-.52223058 2.63147666-.80721816 4.00706587-.84097095l.74813569 8.59579539c3.84795003-.33084363 7.88362108.05416107 12.06550936.99604012l1.96149537-6.75669244 4.56813072-1.78074674s-.78073-4.33985047-2.20019467-6.04733887z"/>
      <path fill="rgb(255,255,255)" fill-rule="evenodd" d="M51.23128437 74.464632c-.4948002-.59519409-1.345324-.91699285-2.16218313-1.09090597.02452523-.07443092-2.4840575-.59381088-2.52600704-.48677516l-.94543625-.75490807-2.90438484 1.51190516-1.63227024-1.1137999-.75819506.26972956c.03089076-.1340195-2.35371722.2798901-2.35371722.2798901-.45549964.01641055-1.03732775.04499382-1.68857206.09520737-2.2807094.175857-2.45614225 6.09657337-2.45614225 6.09657337 1.04936824-.43029741 2.16823432-.66511562 3.30166618-.69292594l.61646381 17.3366844c3.17056215-.2726041 6.49579673.04462384 9.94150813.82069542l1.61617184-15.82132978 3.76396009-1.4672671s-.64327745-3.57586907-1.81286196-4.98277347z"/>
      <path fill="rgb(230,230,230)" fill-rule="evenodd" d="M174.04446978 174.35654303l-22.83361231 4.68494732-.52042988-.05322187-20.06593614-2.03011537v-25.49042807l24.5638358-4.16297457 17.81868985 2.08305263.00653022.11298974v.05322187l1.03092246 24.80252832z"/>
      <g opacity=".1">
        <path fill="rgb(0,0,0)" fill-rule="evenodd" d="M174.04446978 174.35654303l-22.83361231 4.68494732-.52042988-.05322187v-26.13165195l22.32311973-3.3558237 1.03092246 24.8557502z"/>
      </g>
      <g opacity=".05">
        <path fill="rgb(0,0,0)" fill-rule="evenodd" d="M173.01354732 149.5540147l-.00653022.00654601-22.3165895 3.29605582-20.06593615-1.3888915 24.5638358-4.16297456 17.81868985 2.08305263.00653022.11298974v.05322187z"/>
      </g>
      <rect width="13.912" height="6.546" x="133.16" y="160.811" fill="rgb(255,255,255)" rx="0" ry="0" transform="rotate(3.734111 140.11575422 164.08388646)"/>
      <rect width="7.382" height="2.277" x="136.425" y="162.945" fill="rgb(250,153,23)" rx="0" ry="0" transform="rotate(3.734111 140.11575422 164.08388646)"/>
      <path fill="rgb(250,153,23)" fill-rule="evenodd" d="M204.99201824 174.35654303l-22.83361231 4.68494732-.52042988-.05322187-20.06593614-2.03011537v-25.49042807l24.5638358-4.16297457 17.81868985 2.08305263.00653022.11298974v.05322187l1.03092246 24.80252832z"/>
      <g opacity=".1">
        <path fill="rgb(0,0,0)" fill-rule="evenodd" d="M204.99201824 174.35654303l-22.83361231 4.68494732-.52042988-.05322187v-26.13165195l22.32311973-3.3558237 1.03092246 24.8557502z"/>
      </g>
      <g opacity=".05">
        <path fill="rgb(0,0,0)" fill-rule="evenodd" d="M203.96109578 149.5540147l-.00653022.00654601-22.3165895 3.29605582-20.06593615-1.3888915 24.5638358-4.16297456 17.81868985 2.08305263.00653022.11298974v.05322187z"/>
      </g>
      <rect width="13.912" height="6.546" x="164.107" y="160.811" fill="rgb(255,255,255)" rx="0" ry="0" transform="rotate(3.734111 171.06330426 164.0838854)"/>
      <rect width="7.382" height="2.277" x="167.372" y="162.945" fill="rgb(250,153,23)" rx="0" ry="0" transform="rotate(3.734111 171.06330426 164.0838854)"/>
      <path fill="rgb(255,184,184)" fill-rule="evenodd" d="M221.51483487 47.13722131s4.02872063 10.43273816-3.35730079 10.43273816c-7.38602141 0 11.41475908 10.43272962 18.80077765 4.3750082 7.38601858-6.0577214 3.02154544-6.39425152 3.02154544-6.39425152s-9.73611294 1.00962166-9.40038882-7.740409l-9.06463348-.67308584z"/>
      <ellipse cx="226.763" cy="38.375" fill="rgb(47,46,65)" rx="11.874" ry="11.902"/>
      <path fill="rgb(47,46,65)" fill-rule="evenodd" d="M219.5004561 90.55085014l-12.7576669 32.98088213s-6.37882635 10.0961995-4.02873766 20.19237908c2.35008869 10.09617958 8.80818335 28.47127667 8.80818335 28.47127667s4.87849772 1.2443301 4.5427594-3.13069804c-.3357383-4.37502813.20923383-25.5858119-4.82668186-31.30698042l20.34835098-23.31253237.67145675 26.58663345s-1.3429135 12.11543713-1.00717519 17.50005846c.33573831 5.38462133 1.00717519 14.47122479 1.00717519 14.47122479l4.0287405-.67308016s5.43476713-24.78769451 4.76331038-32.864645c0 0 12.47373308-39.2450247-.28392247-48.66812412l-21.26579247-.24639447z"/>
      <path fill="rgb(47,46,65)" fill-rule="evenodd" d="M212.9246841 172.14060365s-1.64260502-.41925739-1.83186774 1.09095435c-.18926271 1.51021174-3.64426974 8.22613964-.0371257 8.56237092 3.60714404.33623127 4.85513374-3.04670996 5.45926112-5.4251041.60412738-2.37839415.83311084-2.51476451 1.33755872-2.97046323.50444788-.45569871 1.70518437-2.95219987.19861512-3.14192586-1.50656925-.189726-2.27894056-1.67498038-2.27894056-1.67498038s-.47484612 4.16473346-2.84750097 3.5591483z"/>
      <path fill="rgb(47,46,65)" fill-rule="evenodd" d="M234.8881053 170.97270244s-3.04640286-.43625139-2.82879617.65437281c.2176067 1.0906242-.43519919 5.67128228 0 6.10753366.4351992.4362514 1.30560041 1.30875701 1.30560041 1.96312983 0 .6543728.2176067 2.83563544 3.91680124 2.18126263 3.69919453-.65437282 2.82879615-3.92627103 2.61120082-4.36252527-.21759534-.43625423-2.82879616-2.61751402-2.61120082-3.92627103.21759533-1.308757-1.08800508-3.4900054-2.39360549-2.61750263z"/>
      <ellipse cx="226.909" cy="43.339" fill="rgb(255,184,184)" rx="8.224" ry="8.244"/>
      <path fill="rgb(87,90,137)" fill-rule="evenodd" d="M234.77609504 54.70936667s2.86849136 5.68902764-5.77771423 5.85031835c-2.65797989.04958172-5.81908457-1.89216828-7.12397802-4.21391956-.76876265-1.36783044-.96299969.52129253-2.20605198.38284168-2.35415162-.2622045-4.86916519.71675054-7.11959141 1.91637427-.59940712.31890628-.88993367 1.01838597-.69341248 1.66947888 1.70663521 5.67621455 6.5804255 32.9806516 7.33279447 34.46730341 1.92127775 3.7963499 22.71379704-2.56148022 22.71379704-2.56148022.28496162-10.32953896-3.45533638-24.78120543 3.12314709-35.2915052-2.92848705-2.2059164-6.67326364-3.01684511-10.24899048-2.21941161z"/>
      <path fill="rgb(47,46,65)" fill-rule="evenodd" d="M234.60030445 36.9997279l-6.02568643-3.16371267-8.32091563 1.29411672-1.72142189 7.6221113 4.28552566-.16535778 1.1970171-2.8002671v2.75416046l1.97751996-.0762752 1.1476146-4.458114.71747205 4.74585362 7.02935234-.14401211-.28647776-5.60850324z"/>
      <ellipse cx="227.388" cy="24.803" fill="rgb(47,46,65)" rx="4.791" ry="4.803"/>
      <path fill="rgb(47,46,65)" fill-rule="evenodd" d="M221.3470225 23.34088795c.00015222-2.37031121 1.72501378-4.3862132 4.06199634-4.74738767-1.86448094-.28600992-3.72287554.55119373-4.74740744 2.1386991-1.0245319 1.58750536-1.0245319 3.62987177 0 5.21737714 1.0245319 1.58750537 2.8829265 2.42470902 4.74740744 2.1386991-2.33698256-.36117447-4.06184412-2.37707646-4.06199634-4.74738767z"/>
      <path fill="rgb(230,230,230)" fill-rule="evenodd" d="M249 137.64199326l-22.83361231 4.68494732-.52042988-.05322187-20.06593615-2.03011537v-25.49042807l24.5638358-4.16297457 17.81868986 2.08305263.00653022.11298974v.05322187L249 137.64199326z"/>
      <g opacity=".1">
        <path fill="rgb(0,0,0)" fill-rule="evenodd" d="M249 137.64199326l-22.83361231 4.68494732-.52042988-.05322187v-26.13165195l22.32311973-3.3558237L249 137.64199327z"/>
      </g>
      <g opacity=".05">
        <path fill="rgb(0,0,0)" fill-rule="evenodd" d="M247.96907754 112.83946494l-.00653022.006546-22.3165895 3.29605582-20.06593616-1.3888915 24.5638358-4.16297456 17.81868986 2.08305263.00653022.11298974v.05322187z"/>
      </g>
      <rect width="13.912" height="6.546" x="208.115" y="124.096" fill="rgb(255,255,255)" rx="0" ry="0" transform="rotate(3.734111 215.07128392 127.36933394)"/>
      <rect width="7.382" height="2.277" x="211.38" y="126.231" fill="rgb(250,153,23)" rx="0" ry="0" transform="rotate(3.734111 215.07128392 127.36933394)"/>
      <path fill="rgb(255,184,184)" fill-rule="evenodd" d="M213.4304437 108.20669497s-8.39319945 6.73079872-4.70019726 9.0865693c3.6930022 2.3557706 8.05747817-9.0865693 8.05747817-9.0865693h-3.35728092z"/>
      <path fill="rgb(87,90,137)" fill-rule="evenodd" d="M213.7936146 58.35182284c-.43475628-.49116098-5.92468102 2.3154785-5.11060434 5.97678717l.38299153 25.36840485s-2.01437025 20.8654507 3.02154544 20.8654507c5.03591569 0 4.44166313.70165204 5.11313692-.98104693.67147379-1.68269896.85176739-15.93809912.85176739-15.93809912l-4.25883694-35.29149667z"/>
      <path fill="rgb(255,184,184)" fill-rule="evenodd" d="M239.7595958 105.92982367s4.36447598 11.44234274 8.05747817 9.0865693c3.69300219-2.35577343-4.70019725-9.0865693-4.70019725-9.0865693h-3.35728092z"/>
      <path fill="rgb(87,90,137)" fill-rule="evenodd" d="M240.76624857 91.65106566s-2.09108893 13.97079693-1.41961231 15.6534902c.67147662 1.68269329.07722691.98104693 5.11313692.98104693 5.03591001 0 3.02154544-20.8654507 3.02154544-20.8654507l.38299153-25.36841338c.81407668-3.66130867-4.67584806-6.46794816-5.11060433-5.97678717l-4.82668187 16.50731695 2.83922462 19.06879717z"/>
    </g>
  </g>
</svg>
