<svg xmlns="http://www.w3.org/2000/svg" width="24.86" height="24.86" viewBox="0 0 24.86 24.86">
  <path fill="rgb(250,153,23)" fill-rule="evenodd" d="M15.87020874 16.58021164l8.27999878 8.2800026.70999145-.7100029-8.27999877-8.27999879c3.4472351-3.83205032 3.21417236-9.71279525-.5255127-13.26000976-3.73968506-3.5472145-9.62454224-3.46950722-13.2692566.17521667C-.85931395 6.43014526-.93701171 12.314991 2.61019898 16.0546837c3.5472107 3.73969268 9.42797852 3.97276306 13.26000977.52552795zM1.64587402 6.24656296c1.32510376-3.175251 4.4336853-5.23849297 7.87432862-5.22634888 4.68041992.02199555 8.46453857 3.8195343 8.47000122 8.5-.00003052 3.44065476-2.07424927 6.5419426-5.2541504 7.85580444-3.17993163 1.31386185-6.83825683.58112336-9.26687621-1.85608673C1.04055786 13.08272552.32077026 9.42181396 1.64587402 6.24656296z"/>
</svg>
